# xmcd
#
# Track frame offsets: 
#        150
#        17554
#        32549
#        51785
#        67972
#        82320
#        101897
#        125769
#        143708
#        162010
#        173761
#        196825
#        205891
#        224379
#        236136
#
# Disc length: 3430 seconds
#
# Revision: 0
# Processed by: cddbd v1.5.2PL0 Copyright (c) Steve Scherf et al.
# Submitted via: ExactAudioCopyFreeDBPlugin 1.0
#
DISCID=d40d640f
DTITLE=Guy Penrod - Christmas
DYEAR=2014
DGENRE=Gospel
TTITLE0=Have Yourself A Merry Little Christmas
TTITLE1=Sleigh Ride
TTITLE2=Tennessee Christmas [feat. Amy Grant]
TTITLE3=Hark! The Herald Angels Sing
TTITLE4=Winter Wonderland
TTITLE5=Silent Night, Holy Night
TTITLE6=Breath Of Heaven
TTITLE7=Twelve Days Of Christmas
TTITLE8=The Christmas Song
TTITLE9=Angels We Have Heard On High
TTITLE10=Little Drummer Boy - We Three Kings (Medley)
TTITLE11=Away In A Manger
TTITLE12=A Cradle In Bethlehem
TTITLE13=White Christmas
TTITLE14=O Holy Night
EXTD=
EXTT0=
EXTT1=
EXTT2=
EXTT3=
EXTT4=
EXTT5=
EXTT6=
EXTT7=
EXTT8=
EXTT9=
EXTT10=
EXTT11=
EXTT12=
EXTT13=
EXTT14=
PLAYORDER=
